<?xml version="1.0" encoding="utf-8"?>
<!-- Generator: Adobe Illustrator 26.0.1, SVG Export Plug-In . SVG Version: 6.00 Build 0)  -->
<svg version="1.1" id="Layer_1" xmlns="http://www.w3.org/2000/svg" xmlns:xlink="http://www.w3.org/1999/xlink" x="0px" y="0px"
	 viewBox="0 0 100 100" style="enable-background:new 0 0 100 100;" xml:space="preserve">
<style type="text/css">
	.st0{fill:#FFFFFF;}
</style>
<g>
	<g>
		<path class="st0" d="M54.74,48.18c-7.31,0-15.69-3.55-24.47-7.26c-9.85-4.17-20.03-8.49-28.56-7.46c-0.82,0.1-1.6-0.5-1.7-1.33
			c-0.1-0.84,0.5-1.6,1.33-1.7c9.3-1.13,19.9,3.35,30.12,7.68c10.3,4.36,20.03,8.47,27.35,6.53c5.55-1.48,10.2-5.04,13.08-10.01
			c2.88-4.98,3.65-10.77,2.16-16.33c-1.16-4.36-3.96-8.01-7.87-10.28c-3.91-2.26-8.47-2.87-12.83-1.7
			c-7.04,1.88-11.25,9.14-9.37,16.19c0.71,2.65,2.41,4.87,4.78,6.24c2.37,1.37,5.14,1.74,7.79,1.03c2.04-0.54,3.75-1.85,4.81-3.68
			s1.34-3.96,0.8-6c-0.22-0.81,0.27-1.65,1.08-1.87c0.81-0.22,1.65,0.27,1.87,1.08c0.76,2.83,0.36,5.78-1.1,8.32
			c-1.47,2.54-3.83,4.35-6.67,5.1c-3.44,0.92-7.03,0.44-10.11-1.34c-3.08-1.78-5.28-4.66-6.2-8.1c-2.31-8.67,2.86-17.61,11.53-19.92
			c5.15-1.38,10.53-0.66,15.15,2.01c4.61,2.67,7.91,6.98,9.29,12.13c1.69,6.34,0.82,12.96-2.47,18.64
			c-3.29,5.68-8.59,9.74-14.93,11.43C58.04,48,56.42,48.18,54.74,48.18z"/>
	</g>
	<g>
		<path class="st0" d="M68.64,97.32c-3.06,0-6.06-0.86-8.71-2.53c-3.03-1.91-5.14-4.89-5.94-8.39c-0.79-3.5-0.18-7.1,1.73-10.13
			c1.57-2.5,4.02-4.23,6.9-4.89c2.88-0.65,5.84-0.15,8.34,1.43c0.71,0.45,0.93,1.39,0.48,2.1c-0.45,0.71-1.39,0.93-2.1,0.48
			c-1.81-1.14-3.94-1.51-6.03-1.03c-2.08,0.47-3.86,1.73-4.99,3.54c-1.48,2.34-1.95,5.12-1.34,7.82c0.61,2.7,2.24,5.01,4.59,6.48
			c3.02,1.9,6.6,2.51,10.07,1.72c3.48-0.79,6.44-2.89,8.34-5.91c2.43-3.86,3.21-8.43,2.21-12.88c-1.01-4.45-3.69-8.23-7.55-10.66
			c-3.69-2.33-7.77-2.06-13.4-1.69c-9.53,0.62-22.57,1.48-42.92-10.08c-0.73-0.42-0.99-1.35-0.57-2.08
			c0.41-0.73,1.35-0.99,2.08-0.57c19.55,11.1,32.07,10.28,41.21,9.68c5.73-0.37,10.69-0.7,15.23,2.16c4.55,2.86,7.71,7.33,8.9,12.57
			c1.19,5.24,0.27,10.63-2.6,15.18c-2.33,3.71-5.97,6.29-10.25,7.26C71.09,97.18,69.86,97.32,68.64,97.32z"/>
	</g>
	<g>
		<path class="st0" d="M95.08,66.74c-0.33,0-0.66-0.11-0.94-0.33c-0.66-0.52-0.77-1.48-0.25-2.14c0.27-0.34,6.45-8.35,0.53-14.54
			C87.97,43,81.19,47.17,80.9,47.35c-0.71,0.45-1.65,0.24-2.11-0.47c-0.45-0.71-0.25-1.65,0.46-2.1c0.09-0.06,9.15-5.74,17.36,2.83
			c6.22,6.49,2.5,14.97-0.34,18.55C95.98,66.54,95.53,66.74,95.08,66.74z"/>
	</g>
</g>
</svg>
