<?xml version="1.0" encoding="utf-8"?>
<!-- Generator: Adobe Illustrator 26.0.1, SVG Export Plug-In . SVG Version: 6.00 Build 0)  -->
<svg version="1.1" id="Layer_1" xmlns="http://www.w3.org/2000/svg" xmlns:xlink="http://www.w3.org/1999/xlink" x="0px" y="0px"
	 viewBox="0 0 100 100" style="enable-background:new 0 0 100 100;" xml:space="preserve">
<style type="text/css">
	.st0{fill:#FFFFFF;}
</style>
<g>
	<g>
		<path class="st0" d="M50,100C22.43,100,0,77.57,0,50S22.43,0,50,0c27.57,0,50,22.43,50,50S77.57,100,50,100z M50,3.7
			C24.47,3.7,3.7,24.47,3.7,50c0,25.53,20.77,46.3,46.3,46.3S96.3,75.53,96.3,50C96.3,24.47,75.53,3.7,50,3.7z"/>
	</g>
	<g>
		<g>
			<rect x="8.22" y="25.6" class="st0" width="84.33" height="3.7"/>
		</g>
		<g>
			<rect x="2.86" y="49.21" class="st0" width="94.25" height="3.7"/>
		</g>
		<g>
			<rect x="8.25" y="72.83" class="st0" width="83.88" height="3.7"/>
		</g>
	</g>
</g>
</svg>
