<?xml version="1.0" encoding="utf-8"?>
<!-- Generator: Adobe Illustrator 26.0.1, SVG Export Plug-In . SVG Version: 6.00 Build 0)  -->
<svg version="1.1" id="Layer_1" xmlns="http://www.w3.org/2000/svg" xmlns:xlink="http://www.w3.org/1999/xlink" x="0px" y="0px"
	 viewBox="0 0 100 100" style="enable-background:new 0 0 100 100;" xml:space="preserve">
<style type="text/css">
	.st0{fill:#FFFFFF;}
</style>
<path class="st0" d="M50,0L50,0C22.39,0,0,22.39,0,50s22.39,50,50,50l0,0c27.61,0,50-22.39,50-50S77.61,0,50,0z M48.33,3.68v92.63
	C41.67,93.62,35,75.37,35,50S41.67,6.38,48.33,3.68z M51.67,96.32V3.68C58.33,6.38,65,24.63,65,50S58.33,93.62,51.67,96.32z
	 M31.67,50c0,18.05,3.7,36.55,10.22,45.1C28.33,89.82,18.33,71.67,18.33,50s10-39.82,23.55-45.1C35.37,13.45,31.67,31.95,31.67,50z
	 M68.33,50c0-18.05-3.7-36.55-10.22-45.1C71.67,10.18,81.67,28.33,81.67,50s-10,39.82-23.55,45.1C64.63,86.55,68.33,68.05,68.33,50z
	 M3.33,50c0-18.99,11.52-36.09,29.12-43.23C22.02,15.45,15,31.57,15,50s7.02,34.55,17.45,43.23C14.85,86.09,3.34,68.99,3.33,50z
	 M67.55,93.23C77.98,84.55,85,68.43,85,50S77.98,15.45,67.55,6.77c23.88,9.7,35.37,36.92,25.66,60.8
	C88.47,79.24,79.22,88.49,67.55,93.23z"/>
</svg>
