<?xml version="1.0" encoding="utf-8"?>
<!-- Generator: Adobe Illustrator 26.0.1, SVG Export Plug-In . SVG Version: 6.00 Build 0)  -->
<svg version="1.1" id="Layer_1" xmlns="http://www.w3.org/2000/svg" xmlns:xlink="http://www.w3.org/1999/xlink" x="0px" y="0px"
	 viewBox="0 0 100 100" style="enable-background:new 0 0 100 100;" xml:space="preserve">
<style type="text/css">
	.st0{fill:#FFFFFF;}
</style>
<g>
	<g>
		<path class="st0" d="M1.75,36.87c-0.28,0-0.57-0.07-0.84-0.22c-0.85-0.46-1.16-1.53-0.69-2.38c1.82-3.32,4.35-6.57,7.53-9.67
			c6.47-6.31,14.4-9.84,22.32-9.95c6.58-0.12,13.64,2.12,20.79,6.58c1.57,0.98,3.09,2.07,4.6,3.16c2.49,1.79,4.84,3.49,7.45,4.69
			c8.82,4.06,18.51,2.95,26.56-3.06c2.54-1.9,5.05-4.31,7.45-7.16c0.63-0.73,1.73-0.83,2.47-0.21c0.74,0.63,0.83,1.73,0.21,2.47
			c-2.58,3.06-5.28,5.65-8.04,7.71c-9.13,6.81-20.11,8.05-30.13,3.44c-2.91-1.35-5.51-3.22-8.03-5.03c-1.45-1.04-2.9-2.09-4.4-3.03
			c-6.57-4.1-12.92-6.22-18.89-6.05c-7.02,0.1-14.1,3.28-19.92,8.96c-2.92,2.85-5.25,5.83-6.9,8.85
			C2.97,36.54,2.37,36.87,1.75,36.87z"/>
	</g>
	<g>
		<path class="st0" d="M1.75,61.11c-0.29,0-0.57-0.07-0.84-0.21c-0.85-0.47-1.16-1.53-0.69-2.38c2.59-4.72,6.37-9.09,10.93-12.65
			c9.28-7.24,21.03-8.82,32.23-4.34c3.93,1.57,7.38,4,10.72,6.35c2.82,1.98,5.48,3.86,8.41,5.26c4.71,2.25,9.66,3.12,14.33,2.53
			c8.82-1.15,15.78-7.46,20.08-12.56c0.63-0.74,1.73-0.83,2.47-0.21c0.74,0.63,0.83,1.73,0.21,2.47
			c-6.73,7.99-14.45,12.76-22.31,13.78c-5.32,0.68-10.96-0.29-16.29-2.84c-3.19-1.52-6.1-3.57-8.91-5.55
			c-3.32-2.34-6.45-4.54-10-5.96c-10.17-4.06-20.38-2.69-28.78,3.85C9.12,51.9,5.65,55.9,3.29,60.2
			C2.97,60.78,2.37,61.11,1.75,61.11z"/>
	</g>
	<g>
		<path class="st0" d="M1.75,85.35c-0.29,0-0.57-0.07-0.84-0.21c-0.85-0.47-1.16-1.53-0.69-2.38c2.6-4.73,6.39-9.11,10.96-12.67
			c9.31-7.25,21.09-8.8,32.32-4.27c3.9,1.57,7.3,3.97,10.58,6.29c2.48,1.75,4.82,3.4,7.37,4.74c4.53,2.38,9.34,3.49,13.86,3.2
			c9.51-0.59,17-7.24,21.6-12.71c0.63-0.75,1.73-0.83,2.47-0.21c0.74,0.63,0.83,1.73,0.21,2.47c-5.05,6-13.32,13.28-24.07,13.95
			c-5.18,0.34-10.61-0.92-15.7-3.59c-2.76-1.45-5.31-3.24-7.77-4.98c-3.26-2.3-6.34-4.48-9.87-5.9C32,64.95,21.75,66.29,13.33,72.85
			c-4.2,3.27-7.67,7.28-10.04,11.59C2.97,85.02,2.37,85.35,1.75,85.35z"/>
	</g>
</g>
</svg>
